<?xml version="1.0" encoding="UTF-8"?>
<svg xmlns="http://www.w3.org/2000/svg" width="500" height="400" viewBox="0 0 500 400">
  <style>
    .title { font: bold 16px sans-serif; }
    .label { font: 12px sans-serif; }
    .value { font: bold 12px sans-serif; }
  </style>
  <rect width="100%%" height="100%%" fill="white"/>
  <text x="250" y="25" class="title" text-anchor="middle">Suspect Types Distribution</text>
  <path d="M 180,180 L 180.00,40.00 A 140,140 0 1,1 44.18,146.03 Z" fill="#4CAF50" stroke="white" stroke-width="2"/>
  <path d="M 180,180 L 44.18,146.03 A 140,140 0 0,1 88.46,74.07 Z" fill="#F44336" stroke="white" stroke-width="2"/>
  <path d="M 180,180 L 88.46,74.07 A 140,140 0 0,1 108.24,59.79 Z" fill="#2196F3" stroke="white" stroke-width="2"/>
  <path d="M 180,180 L 108.24,59.79 A 140,140 0 0,1 126.29,50.71 Z" fill="#FF9800" stroke="white" stroke-width="2"/>
  <path d="M 180,180 L 126.29,50.71 A 140,140 0 0,1 142.64,45.08 Z" fill="#9C27B0" stroke="white" stroke-width="2"/>
  <path d="M 180,180 L 142.64,45.08 A 140,140 0 0,1 156.41,42.00 Z" fill="#00BCD4" stroke="white" stroke-width="2"/>
  <path d="M 180,180 L 156.41,42.00 A 140,140 0 0,1 168.40,40.48 Z" fill="#FFEB3B" stroke="white" stroke-width="2"/>
  <path d="M 180,180 L 168.40,40.48 A 140,140 0 0,1 180.00,40.00 Z" fill="#795548" stroke="white" stroke-width="2"/>
  <rect x="350" y="60" width="15" height="15" fill="#4CAF50"/>
  <text x="370" y="72" class="label">unnamed_param</text>
  <text x="370" y="84" class="value">78.9%</text>
  <rect x="350" y="85" width="15" height="15" fill="#F44336"/>
  <text x="370" y="97" class="label">undefined_data</text>
  <text x="370" y="109" class="value">9.8%</text>
  <rect x="350" y="110" width="15" height="15" fill="#2196F3"/>
  <text x="370" y="122" class="label">param_count_too...</text>
  <text x="370" y="134" class="value">2.8%</text>
  <rect x="350" y="135" width="15" height="15" fill="#FF9800"/>
  <text x="370" y="147" class="label">unresolved_func...</text>
  <text x="370" y="159" class="value">2.3%</text>
  <rect x="350" y="160" width="15" height="15" fill="#9C27B0"/>
  <text x="370" y="172" class="label">warning_overlap...</text>
  <text x="370" y="184" class="value">2.0%</text>
  <rect x="350" y="185" width="15" height="15" fill="#00BCD4"/>
  <text x="370" y="197" class="label">pointer_cast</text>
  <text x="370" y="209" class="value">1.6%</text>
  <rect x="350" y="210" width="15" height="15" fill="#FFEB3B"/>
  <text x="370" y="222" class="label">static_uninitva...</text>
  <text x="370" y="234" class="value">1.4%</text>
  <rect x="350" y="235" width="15" height="15" fill="#795548"/>
  <text x="370" y="247" class="label">pointer_truncat...</text>
  <text x="370" y="259" class="value">1.3%</text>
</svg>