<?xml version="1.0" encoding="UTF-8"?>
<svg xmlns="http://www.w3.org/2000/svg" width="500" height="400" viewBox="0 0 500 400">
  <style>
    .title { font: bold 16px sans-serif; }
    .label { font: 12px sans-serif; }
    .value { font: bold 12px sans-serif; }
  </style>
  <rect width="100%%" height="100%%" fill="white"/>
  <text x="250" y="25" class="title" text-anchor="middle">Suspect Types Distribution</text>
  <path d="M 180,180 L 180.00,40.00 A 140,140 0 0,1 289.64,267.06 Z" fill="#4CAF50" stroke="white" stroke-width="2"/>
  <path d="M 180,180 L 289.64,267.06 A 140,140 0 0,1 121.44,307.16 Z" fill="#F44336" stroke="white" stroke-width="2"/>
  <path d="M 180,180 L 121.44,307.16 A 140,140 0 0,1 40.15,173.44 Z" fill="#2196F3" stroke="white" stroke-width="2"/>
  <path d="M 180,180 L 40.15,173.44 A 140,140 0 0,1 59.85,108.14 Z" fill="#FF9800" stroke="white" stroke-width="2"/>
  <path d="M 180,180 L 59.85,108.14 A 140,140 0 0,1 87.99,74.48 Z" fill="#9C27B0" stroke="white" stroke-width="2"/>
  <path d="M 180,180 L 87.99,74.48 A 140,140 0 0,1 121.01,53.03 Z" fill="#00BCD4" stroke="white" stroke-width="2"/>
  <path d="M 180,180 L 121.01,53.03 A 140,140 0 0,1 151.39,42.95 Z" fill="#FFEB3B" stroke="white" stroke-width="2"/>
  <path d="M 180,180 L 151.39,42.95 A 140,140 0 0,1 180.00,40.00 Z" fill="#795548" stroke="white" stroke-width="2"/>
  <rect x="350" y="60" width="15" height="15" fill="#4CAF50"/>
  <text x="370" y="72" class="label">stack_param</text>
  <text x="370" y="84" class="value">35.7%</text>
  <rect x="350" y="85" width="15" height="15" fill="#F44336"/>
  <text x="370" y="97" class="label">pointer_cast</text>
  <text x="370" y="109" class="value">21.2%</text>
  <rect x="350" y="110" width="15" height="15" fill="#2196F3"/>
  <text x="370" y="122" class="label">decompiler_intr...</text>
  <text x="370" y="134" class="value">18.9%</text>
  <rect x="350" y="135" width="15" height="15" fill="#FF9800"/>
  <text x="370" y="147" class="label">unknown_field</text>
  <text x="370" y="159" class="value">7.8%</text>
  <rect x="350" y="160" width="15" height="15" fill="#9C27B0"/>
  <text x="370" y="172" class="label">undefined_data</text>
  <text x="370" y="184" class="value">5.0%</text>
  <rect x="350" y="185" width="15" height="15" fill="#00BCD4"/>
  <text x="370" y="197" class="label">unnamed_param</text>
  <text x="370" y="209" class="value">4.5%</text>
  <rect x="350" y="210" width="15" height="15" fill="#FFEB3B"/>
  <text x="370" y="222" class="label">stack_ref</text>
  <text x="370" y="234" class="value">3.6%</text>
  <rect x="350" y="235" width="15" height="15" fill="#795548"/>
  <text x="370" y="247" class="label">unaffected_reg</text>
  <text x="370" y="259" class="value">3.3%</text>
</svg>