<?xml version="1.0" encoding="UTF-8"?>
<svg xmlns="http://www.w3.org/2000/svg" width="500" height="400" viewBox="0 0 500 400">
  <style>
    .title { font: bold 16px sans-serif; }
    .label { font: 12px sans-serif; }
    .value { font: bold 12px sans-serif; }
  </style>
  <rect width="100%%" height="100%%" fill="white"/>
  <text x="250" y="25" class="title" text-anchor="middle">Suspect Types Distribution</text>
  <path d="M 180,180 L 180.00,40.00 A 140,140 0 0,1 237.67,307.57 Z" fill="#4CAF50" stroke="white" stroke-width="2"/>
  <path d="M 180,180 L 237.67,307.57 A 140,140 0 0,1 122.33,307.57 Z" fill="#F44336" stroke="white" stroke-width="2"/>
  <path d="M 180,180 L 122.33,307.57 A 140,140 0 0,1 46.14,221.00 Z" fill="#2196F3" stroke="white" stroke-width="2"/>
  <path d="M 180,180 L 46.14,221.00 A 140,140 0 0,1 50.10,127.80 Z" fill="#FF9800" stroke="white" stroke-width="2"/>
  <path d="M 180,180 L 50.10,127.80 A 140,140 0 0,1 92.05,71.07 Z" fill="#9C27B0" stroke="white" stroke-width="2"/>
  <path d="M 180,180 L 92.05,71.07 A 140,140 0 0,1 133.36,48.00 Z" fill="#00BCD4" stroke="white" stroke-width="2"/>
  <path d="M 180,180 L 133.36,48.00 A 140,140 0 0,1 156.34,42.01 Z" fill="#FFEB3B" stroke="white" stroke-width="2"/>
  <path d="M 180,180 L 156.34,42.01 A 140,140 0 0,1 180.00,40.00 Z" fill="#795548" stroke="white" stroke-width="2"/>
  <rect x="350" y="60" width="15" height="15" fill="#4CAF50"/>
  <text x="370" y="72" class="label">static_integer_...</text>
  <text x="370" y="84" class="value">43.2%</text>
  <rect x="350" y="85" width="15" height="15" fill="#F44336"/>
  <text x="370" y="97" class="label">static_signed_c...</text>
  <text x="370" y="109" class="value">13.5%</text>
  <rect x="350" y="110" width="15" height="15" fill="#2196F3"/>
  <text x="370" y="122" class="label">static_null_poi...</text>
  <text x="370" y="134" class="value">13.5%</text>
  <rect x="350" y="135" width="15" height="15" fill="#FF9800"/>
  <text x="370" y="147" class="label">static_float_lo...</text>
  <text x="370" y="159" class="value">10.8%</text>
  <rect x="350" y="160" width="15" height="15" fill="#9C27B0"/>
  <text x="370" y="172" class="label">static_swapped_...</text>
  <text x="370" y="184" class="value">8.1%</text>
  <rect x="350" y="185" width="15" height="15" fill="#00BCD4"/>
  <text x="370" y="197" class="label">pointer_truncat...</text>
  <text x="370" y="209" class="value">5.4%</text>
  <rect x="350" y="210" width="15" height="15" fill="#FFEB3B"/>
  <text x="370" y="222" class="label">static_null_poi...</text>
  <text x="370" y="234" class="value">2.7%</text>
  <rect x="350" y="235" width="15" height="15" fill="#795548"/>
  <text x="370" y="247" class="label">static_memleak</text>
  <text x="370" y="259" class="value">2.7%</text>
</svg>