<?xml version="1.0" encoding="UTF-8"?>
<svg xmlns="http://www.w3.org/2000/svg" width="500" height="400" viewBox="0 0 500 400">
  <style>
    .title { font: bold 16px sans-serif; }
    .label { font: 12px sans-serif; }
    .value { font: bold 12px sans-serif; }
  </style>
  <rect width="100%%" height="100%%" fill="white"/>
  <text x="250" y="25" class="title" text-anchor="middle">Suspect Types Distribution</text>
  <path d="M 180,180 L 180.00,40.00 A 140,140 0 0,1 301.41,249.72 Z" fill="#4CAF50" stroke="white" stroke-width="2"/>
  <path d="M 180,180 L 301.41,249.72 A 140,140 0 0,1 72.25,269.38 Z" fill="#F44336" stroke="white" stroke-width="2"/>
  <path d="M 180,180 L 72.25,269.38 A 140,140 0 0,1 44.68,144.10 Z" fill="#2196F3" stroke="white" stroke-width="2"/>
  <path d="M 180,180 L 44.68,144.10 A 140,140 0 0,1 83.82,78.27 Z" fill="#FF9800" stroke="white" stroke-width="2"/>
  <path d="M 180,180 L 83.82,78.27 A 140,140 0 0,1 110.90,58.24 Z" fill="#9C27B0" stroke="white" stroke-width="2"/>
  <path d="M 180,180 L 110.90,58.24 A 140,140 0 0,1 136.79,46.84 Z" fill="#00BCD4" stroke="white" stroke-width="2"/>
  <path d="M 180,180 L 136.79,46.84 A 140,140 0 0,1 160.11,41.42 Z" fill="#FFEB3B" stroke="white" stroke-width="2"/>
  <path d="M 180,180 L 160.11,41.42 A 140,140 0 0,1 180.00,40.00 Z" fill="#795548" stroke="white" stroke-width="2"/>
  <rect x="350" y="60" width="15" height="15" fill="#4CAF50"/>
  <text x="370" y="72" class="label">decompiler_intr...</text>
  <text x="370" y="84" class="value">33.3%</text>
  <rect x="350" y="85" width="15" height="15" fill="#F44336"/>
  <text x="370" y="97" class="label">pointer_cast</text>
  <text x="370" y="109" class="value">30.7%</text>
  <rect x="350" y="110" width="15" height="15" fill="#2196F3"/>
  <text x="370" y="122" class="label">stack_param</text>
  <text x="370" y="134" class="value">15.1%</text>
  <rect x="350" y="135" width="15" height="15" fill="#FF9800"/>
  <text x="370" y="147" class="label">unknown_field</text>
  <text x="370" y="159" class="value">8.8%</text>
  <rect x="350" y="160" width="15" height="15" fill="#9C27B0"/>
  <text x="370" y="172" class="label">unnamed_param</text>
  <text x="370" y="184" class="value">3.8%</text>
  <rect x="350" y="185" width="15" height="15" fill="#00BCD4"/>
  <text x="370" y="197" class="label">special_crt_fun...</text>
  <text x="370" y="209" class="value">3.2%</text>
  <rect x="350" y="210" width="15" height="15" fill="#FFEB3B"/>
  <text x="370" y="222" class="label">stack_ref</text>
  <text x="370" y="234" class="value">2.7%</text>
  <rect x="350" y="235" width="15" height="15" fill="#795548"/>
  <text x="370" y="247" class="label">unaffected_reg</text>
  <text x="370" y="259" class="value">2.3%</text>
</svg>