<?xml version="1.0" encoding="UTF-8"?>
<svg xmlns="http://www.w3.org/2000/svg" width="500" height="400" viewBox="0 0 500 400">
  <style>
    .title { font: bold 16px sans-serif; }
    .label { font: 12px sans-serif; }
    .value { font: bold 12px sans-serif; }
  </style>
  <rect width="100%%" height="100%%" fill="white"/>
  <text x="250" y="25" class="title" text-anchor="middle">Suspect Types Distribution</text>
  <path d="M 180,180 L 180.00,40.00 A 140,140 0 1,1 121.40,307.15 Z" fill="#4CAF50" stroke="white" stroke-width="2"/>
  <path d="M 180,180 L 121.40,307.15 A 140,140 0 0,1 51.62,235.84 Z" fill="#F44336" stroke="white" stroke-width="2"/>
  <path d="M 180,180 L 51.62,235.84 A 140,140 0 0,1 41.60,158.92 Z" fill="#2196F3" stroke="white" stroke-width="2"/>
  <path d="M 180,180 L 41.60,158.92 A 140,140 0 0,1 57.64,111.97 Z" fill="#FF9800" stroke="white" stroke-width="2"/>
  <path d="M 180,180 L 57.64,111.97 A 140,140 0 0,1 83.99,78.11 Z" fill="#9C27B0" stroke="white" stroke-width="2"/>
  <path d="M 180,180 L 83.99,78.11 A 140,140 0 0,1 117.99,54.48 Z" fill="#00BCD4" stroke="white" stroke-width="2"/>
  <path d="M 180,180 L 117.99,54.48 A 140,140 0 0,1 152.97,42.64 Z" fill="#FFEB3B" stroke="white" stroke-width="2"/>
  <path d="M 180,180 L 152.97,42.64 A 140,140 0 0,1 180.00,40.00 Z" fill="#795548" stroke="white" stroke-width="2"/>
  <rect x="350" y="60" width="15" height="15" fill="#4CAF50"/>
  <text x="370" y="72" class="label">pointer_cast</text>
  <text x="370" y="84" class="value">56.9%</text>
  <rect x="350" y="85" width="15" height="15" fill="#F44336"/>
  <text x="370" y="97" class="label">unrolled_memcpy</text>
  <text x="370" y="109" class="value">11.6%</text>
  <rect x="350" y="110" width="15" height="15" fill="#2196F3"/>
  <text x="370" y="122" class="label">unrolled_strcpy</text>
  <text x="370" y="134" class="value">8.9%</text>
  <rect x="350" y="135" width="15" height="15" fill="#FF9800"/>
  <text x="370" y="147" class="label">static_uninitva...</text>
  <text x="370" y="159" class="value">5.7%</text>
  <rect x="350" y="160" width="15" height="15" fill="#9C27B0"/>
  <text x="370" y="172" class="label">static_self_ass...</text>
  <text x="370" y="184" class="value">4.9%</text>
  <rect x="350" y="185" width="15" height="15" fill="#00BCD4"/>
  <text x="370" y="197" class="label">unrolled_strlen</text>
  <text x="370" y="209" class="value">4.7%</text>
  <rect x="350" y="210" width="15" height="15" fill="#FFEB3B"/>
  <text x="370" y="222" class="label">shadow_pointer_...</text>
  <text x="370" y="234" class="value">4.2%</text>
  <rect x="350" y="235" width="15" height="15" fill="#795548"/>
  <text x="370" y="247" class="label">bitcast_double_...</text>
  <text x="370" y="259" class="value">3.1%</text>
</svg>