<?xml version="1.0" encoding="UTF-8"?>
<svg xmlns="http://www.w3.org/2000/svg" width="500" height="400" viewBox="0 0 500 400">
  <style>
    .title { font: bold 16px sans-serif; }
    .label { font: 12px sans-serif; }
    .value { font: bold 12px sans-serif; }
  </style>
  <rect width="100%%" height="100%%" fill="white"/>
  <text x="250" y="25" class="title" text-anchor="middle">Suspect Types Distribution</text>
  <path d="M 180,180 L 180.00,40.00 A 140,140 0 1,1 64.40,258.97 Z" fill="#4CAF50" stroke="white" stroke-width="2"/>
  <path d="M 180,180 L 64.40,258.97 A 140,140 0 0,1 41.74,158.01 Z" fill="#F44336" stroke="white" stroke-width="2"/>
  <path d="M 180,180 L 41.74,158.01 A 140,140 0 0,1 65.40,99.58 Z" fill="#2196F3" stroke="white" stroke-width="2"/>
  <path d="M 180,180 L 65.40,99.58 A 140,140 0 0,1 94.60,69.07 Z" fill="#FF9800" stroke="white" stroke-width="2"/>
  <path d="M 180,180 L 94.60,69.07 A 140,140 0 0,1 128.27,49.91 Z" fill="#9C27B0" stroke="white" stroke-width="2"/>
  <path d="M 180,180 L 128.27,49.91 A 140,140 0 0,1 148.48,43.59 Z" fill="#00BCD4" stroke="white" stroke-width="2"/>
  <path d="M 180,180 L 148.48,43.59 A 140,140 0 0,1 165.89,40.71 Z" fill="#FFEB3B" stroke="white" stroke-width="2"/>
  <path d="M 180,180 L 165.89,40.71 A 140,140 0 0,1 180.00,40.00 Z" fill="#795548" stroke="white" stroke-width="2"/>
  <rect x="350" y="60" width="15" height="15" fill="#4CAF50"/>
  <text x="370" y="72" class="label">pointer_cast</text>
  <text x="370" y="84" class="value">65.5%</text>
  <rect x="350" y="85" width="15" height="15" fill="#F44336"/>
  <text x="370" y="97" class="label">static_uninitva...</text>
  <text x="370" y="109" class="value">12.0%</text>
  <rect x="350" y="110" width="15" height="15" fill="#2196F3"/>
  <text x="370" y="122" class="label">bitcast_double_...</text>
  <text x="370" y="134" class="value">7.2%</text>
  <rect x="350" y="135" width="15" height="15" fill="#FF9800"/>
  <text x="370" y="147" class="label">unrolled_memcpy</text>
  <text x="370" y="159" class="value">4.8%</text>
  <rect x="350" y="160" width="15" height="15" fill="#9C27B0"/>
  <text x="370" y="172" class="label">shadow_pointer_...</text>
  <text x="370" y="184" class="value">4.4%</text>
  <rect x="350" y="185" width="15" height="15" fill="#00BCD4"/>
  <text x="370" y="197" class="label">unaffected_reg</text>
  <text x="370" y="209" class="value">2.4%</text>
  <rect x="350" y="210" width="15" height="15" fill="#FFEB3B"/>
  <text x="370" y="222" class="label">sub84_truncatio...</text>
  <text x="370" y="234" class="value">2.0%</text>
  <rect x="350" y="235" width="15" height="15" fill="#795548"/>
  <text x="370" y="247" class="label">static_shift_to...</text>
  <text x="370" y="259" class="value">1.6%</text>
</svg>