<?xml version="1.0" encoding="UTF-8"?>
<svg xmlns="http://www.w3.org/2000/svg" width="500" height="400" viewBox="0 0 500 400">
  <style>
    .title { font: bold 16px sans-serif; }
    .label { font: 12px sans-serif; }
    .value { font: bold 12px sans-serif; }
  </style>
  <rect width="100%%" height="100%%" fill="white"/>
  <text x="250" y="25" class="title" text-anchor="middle">Suspect Types Distribution</text>
  <path d="M 180,180 L 180.00,40.00 A 140,140 0 0,1 318.51,200.37 Z" fill="#4CAF50" stroke="white" stroke-width="2"/>
  <path d="M 180,180 L 318.51,200.37 A 140,140 0 0,1 203.43,318.03 Z" fill="#F44336" stroke="white" stroke-width="2"/>
  <path d="M 180,180 L 203.43,318.03 A 140,140 0 0,1 77.35,275.20 Z" fill="#2196F3" stroke="white" stroke-width="2"/>
  <path d="M 180,180 L 77.35,275.20 A 140,140 0 0,1 40.17,173.19 Z" fill="#FF9800" stroke="white" stroke-width="2"/>
  <path d="M 180,180 L 40.17,173.19 A 140,140 0 0,1 67.10,97.21 Z" fill="#9C27B0" stroke="white" stroke-width="2"/>
  <path d="M 180,180 L 67.10,97.21 A 140,140 0 0,1 113.42,56.84 Z" fill="#00BCD4" stroke="white" stroke-width="2"/>
  <path d="M 180,180 L 113.42,56.84 A 140,140 0 0,1 155.35,42.19 Z" fill="#FFEB3B" stroke="white" stroke-width="2"/>
  <path d="M 180,180 L 155.35,42.19 A 140,140 0 0,1 180.00,40.00 Z" fill="#795548" stroke="white" stroke-width="2"/>
  <rect x="350" y="60" width="15" height="15" fill="#4CAF50"/>
  <text x="370" y="72" class="label">warning_noretur...</text>
  <text x="370" y="84" class="value">27.3%</text>
  <rect x="350" y="85" width="15" height="15" fill="#F44336"/>
  <text x="370" y="97" class="label">unrolled_memcpy</text>
  <text x="370" y="109" class="value">20.0%</text>
  <rect x="350" y="110" width="15" height="15" fill="#2196F3"/>
  <text x="370" y="122" class="label">pointer_cast</text>
  <text x="370" y="134" class="value">15.8%</text>
  <rect x="350" y="135" width="15" height="15" fill="#FF9800"/>
  <text x="370" y="147" class="label">unnamed_param</text>
  <text x="370" y="159" class="value">12.7%</text>
  <rect x="350" y="160" width="15" height="15" fill="#9C27B0"/>
  <text x="370" y="172" class="label">pointer_truncat...</text>
  <text x="370" y="184" class="value">9.3%</text>
  <rect x="350" y="185" width="15" height="15" fill="#00BCD4"/>
  <text x="370" y="197" class="label">unrolled_memset</text>
  <text x="370" y="209" class="value">7.0%</text>
  <rect x="350" y="210" width="15" height="15" fill="#FFEB3B"/>
  <text x="370" y="222" class="label">shadow_pointer_...</text>
  <text x="370" y="234" class="value">5.1%</text>
  <rect x="350" y="235" width="15" height="15" fill="#795548"/>
  <text x="370" y="247" class="label">unrolled_strlen</text>
  <text x="370" y="259" class="value">2.8%</text>
</svg>