<?xml version="1.0" encoding="UTF-8"?>
<svg xmlns="http://www.w3.org/2000/svg" width="500" height="400" viewBox="0 0 500 400">
  <style>
    .title { font: bold 16px sans-serif; }
    .label { font: 12px sans-serif; }
    .value { font: bold 12px sans-serif; }
  </style>
  <rect width="100%%" height="100%%" fill="white"/>
  <text x="250" y="25" class="title" text-anchor="middle">Suspect Types Distribution</text>
  <path d="M 180,180 L 180.00,40.00 A 140,140 0 0,1 180.00,320.00 Z" fill="#4CAF50" stroke="white" stroke-width="2"/>
  <path d="M 180,180 L 180.00,320.00 A 140,140 0 0,1 40.00,180.00 Z" fill="#F44336" stroke="white" stroke-width="2"/>
  <path d="M 180,180 L 40.00,180.00 A 140,140 0 0,1 180.00,40.00 Z" fill="#2196F3" stroke="white" stroke-width="2"/>
  <rect x="350" y="60" width="15" height="15" fill="#4CAF50"/>
  <text x="370" y="72" class="label">warning_noretur...</text>
  <text x="370" y="84" class="value">50.0%</text>
  <rect x="350" y="85" width="15" height="15" fill="#F44336"/>
  <text x="370" y="97" class="label">shadow_pointer_...</text>
  <text x="370" y="109" class="value">25.0%</text>
  <rect x="350" y="110" width="15" height="15" fill="#2196F3"/>
  <text x="370" y="122" class="label">unrolled_memset</text>
  <text x="370" y="134" class="value">25.0%</text>
</svg>